<svg id="Слой_1" data-name="Слой 1" xmlns="http://www.w3.org/2000/svg" viewBox="0 0 138.43 140.65"><defs><style>.cls-1{fill:#fff;}.cls-1,.cls-2{stroke:#fff;stroke-miterlimit:10;}.cls-2{fill:none;stroke-width:9px;}</style></defs><title>logo1</title><path class="cls-1" d="M103.51,65.31a5.12,5.12,0,0,1,.33,1.39,1,1,0,0,1-.29.8,1.89,1.89,0,0,1-1,.35,26.77,26.77,0,0,1-3.87,0,4,4,0,0,1-1.09-.19,1.28,1.28,0,0,1-.55-.37,2.62,2.62,0,0,1-.33-.59L92.33,54.41h-21L67.14,66.56a2,2,0,0,1-.31.61,1.51,1.51,0,0,1-.57.43,3.56,3.56,0,0,1-1.06.25,15,15,0,0,1-1.77.08,14.48,14.48,0,0,1-1.86-.09,1.92,1.92,0,0,1-1-.38,1,1,0,0,1-.27-.8,4.72,4.72,0,0,1,.33-1.38l17-47a2.39,2.39,0,0,1,.41-.71,1.82,1.82,0,0,1,.75-.43A5.94,5.94,0,0,1,80,16.93c.51,0,1.15-.06,1.93-.06s1.53,0,2.07.06a6,6,0,0,1,1.33.21,1.86,1.86,0,0,1,.78.45,2.07,2.07,0,0,1,.43.73ZM81.74,23.85h0L73,49.06H90.61Z" transform="translate(0.51 0.5)"/><path class="cls-1" d="M97.14,53a8,8,0,0,1-.07,1.1,2.47,2.47,0,0,1-.21.75,1,1,0,0,1-.35.41.86.86,0,0,1-.46.14H84.39V92.75a.93.93,0,0,1-.12.46.86.86,0,0,1-.45.32,5,5,0,0,1-.85.2,9.89,9.89,0,0,1-1.33.08,9.5,9.5,0,0,1-1.31-.08,5.11,5.11,0,0,1-.86-.2.8.8,0,0,1-.45-.32.77.77,0,0,1-.13-.46V55.43H67.25a.86.86,0,0,1-.47-.14.89.89,0,0,1-.33-.41,3.21,3.21,0,0,1-.21-.75,6.71,6.71,0,0,1-.08-1.1,6.91,6.91,0,0,1,.08-1.11,3.07,3.07,0,0,1,.21-.79.88.88,0,0,1,.33-.43.85.85,0,0,1,.47-.13H96a.84.84,0,0,1,.46.13,1,1,0,0,1,.35.43,2.44,2.44,0,0,1,.21.79A8.29,8.29,0,0,1,97.14,53Z" transform="translate(0.51 0.5)"/><circle class="cls-2" cx="82.58" cy="55.85" r="51.35"/><path class="cls-2" d="M39.76,84.89,7.14,117.34a10.71,10.71,0,0,0-1.21,13.74h0a10.71,10.71,0,0,0,14.9,2.64,11.69,11.69,0,0,0,1.38-1.15l32.22-31.71" transform="translate(0.51 0.5)"/></svg>